<?xml version="1.0" standalone="no"?><svg xmlns="http://www.w3.org/2000/svg" viewBox="0 0 1440 320"><path fill="#ffffff" fill-opacity="0.9" d="M0,64L15,101.3C30,139,60,213,90,224C120,235,150,181,180,154.7C210,128,240,128,270,160C300,192,330,256,360,282.7C390,309,420,299,450,272C480,245,510,203,540,197.3C570,192,600,224,630,240C660,256,690,256,720,224C750,192,780,128,810,101.3C840,75,870,85,900,122.7C930,160,960,224,990,240C1020,256,1050,224,1080,202.7C1110,181,1140,171,1170,154.7C1200,139,1230,117,1260,128C1290,139,1320,181,1350,181.3C1380,181,1410,139,1425,117.3L1440,96L1440,320L1425,320C1410,320,1380,320,1350,320C1320,320,1290,320,1260,320C1230,320,1200,320,1170,320C1140,320,1110,320,1080,320C1050,320,1020,320,990,320C960,320,930,320,900,320C870,320,840,320,810,320C780,320,750,320,720,320C690,320,660,320,630,320C600,320,570,320,540,320C510,320,480,320,450,320C420,320,390,320,360,320C330,320,300,320,270,320C240,320,210,320,180,320C150,320,120,320,90,320C60,320,30,320,15,320L0,320Z"></path></svg>